# xmcd CD database file
#
# Track frame offsets:
#	150
#	11454
#	23473
#	41449
#	54901
#	66831
#	80501
#	92432
#	108592
#	122255
#	134277
#	150467
#	162363
#	172417
#	183422
#	195755
#
# Disc length: 2831 seconds
#
# Revision: 0
# Processed by: cddbd v1.5.1PL0 Copyright (c) Steve Scherf et al.
# Submitted via: CDex 1.51
#
DISCID=ba0b0d10
DTITLE=John Lee Hooker - Born With The Blues
DYEAR=1900
DGENRE=Blues
TTITLE0=Boom Boom
TTITLE1=Carwlin' Kingsnake
TTITLE2=House Rent Boogie
TTITLE3=Trouble Blues
TTITLE4=Whiskey and Wimmen
TTITLE5=Road is So Rough
TTITLE6=I'm A Stranger
TTITLE7=When My First Wife Left Me
TTITLE8=Time Is Marching
TTITLE9=Everybody's Rockin'
TTITLE10=Mama, You've Got A Daughter
TTITLE11=I'm Mad Again
TTITLE12=I Wanna Walk
TTITLE13=Big Fine Woman
TTITLE14=Crawlin' Black Spider
TTITLE15=Blues Before Sunrise
EXTD=
EXTT0=
EXTT1=
EXTT2=
EXTT3=
EXTT4=
EXTT5=
EXTT6=
EXTT7=
EXTT8=
EXTT9=
EXTT10=
EXTT11=
EXTT12=
EXTT13=
EXTT14=
EXTT15=
PLAYORDER=
